<svg data-v-423bf9ae="" xmlns="http://www.w3.org/2000/svg" viewBox="0 0 223 90" class="iconLeft"><!----><!----><!----><g data-v-423bf9ae="" id="19427fad-183c-4b8e-8590-bab036072ce2" fill="#193655" transform="matrix(4.569687698175228,0,0,4.569687698175228,64.58044410849176,3.9413549449392917)"><path d="M5.46 12.67Q3.28 12.67 1.81 11.20Q0.33 9.73 0.33 7.53L0.33 7.53Q0.34 5.37 1.81 3.89Q3.28 2.42 5.46 2.42L5.46 2.42Q7.65 2.42 9.22 3.79L9.22 3.79L7.85 5.28Q6.81 4.46 5.46 4.46L5.46 4.46Q4.07 4.47 3.23 5.33Q2.39 6.18 2.39 7.51L2.39 7.51Q2.39 8.94 3.24 9.78Q4.09 10.62 5.47 10.62L5.47 10.62Q6.85 10.62 7.85 9.81L7.85 9.81L9.22 11.31Q7.66 12.67 5.46 12.67L5.46 12.67ZM13.19 8.05L13.19 8.05L13.19 12.67L11.27 12.67L11.27 2.42L13.19 2.42L13.19 6.45Q13.88 5.84 14.83 5.84L14.83 5.84Q16.13 5.84 16.81 6.62Q17.49 7.41 17.49 8.44L17.49 8.44L17.49 12.67L15.58 12.67L15.58 8.91Q15.58 8.23 15.24 7.85Q14.90 7.48 14.21 7.46L14.21 7.46Q13.61 7.50 13.19 8.05ZM20.71 12.67L18.79 12.67L18.79 5.83L20.71 5.83L20.71 12.67ZM18.72 4.20L18.72 4.20Q18.72 4.61 19.00 4.88Q19.27 5.15 19.75 5.15L19.75 5.15Q20.23 5.15 20.50 4.88Q20.77 4.61 20.77 4.20L20.77 4.20Q20.77 3.79 20.50 3.51Q20.23 3.23 19.74 3.23L19.74 3.23Q19.27 3.23 19.00 3.51Q18.72 3.79 18.72 4.20ZM24.14 5.83L24.14 6.59Q24.87 5.84 25.92 5.84L25.92 5.84Q26.26 5.84 26.56 5.89L26.56 5.89L26.26 7.78Q25.92 7.48 25.30 7.46L25.30 7.46Q24.60 7.51 24.14 8.47L24.14 8.47L24.14 12.67L22.22 12.67L22.22 6.04L24.14 5.83ZM29.70 15.55L27.79 15.54L27.79 6.04L29.70 5.83L29.70 6.38Q30.47 5.83 31.21 5.83L31.21 5.83Q32.78 5.83 33.70 6.86Q34.62 7.88 34.62 9.25L34.62 9.25Q34.62 10.62 33.70 11.64Q32.78 12.67 31.21 12.67L31.21 12.67Q30.18 12.60 29.70 12.11L29.70 12.11L29.70 15.55ZM29.70 8.63L29.70 8.63L29.70 9.74Q29.84 10.89 31.14 11.09L31.14 11.09Q32.78 10.96 32.98 9.39L32.98 9.39Q32.92 7.47 31.14 7.40L31.14 7.40Q29.84 7.61 29.70 8.63Z"></path></g><defs data-v-423bf9ae=""><linearGradient data-v-423bf9ae="" gradientTransform="rotate(25)" id="d1cdbf0c-9a7c-4de1-b045-5a6e365ff9bf" x1="0%" y1="0%" x2="100%" y2="0%"><stop data-v-423bf9ae="" offset="0%" style="stop-color: rgb(81, 164, 251); stop-opacity: 1;"></stop><stop data-v-423bf9ae="" offset="100%" style="stop-color: rgb(81, 164, 251); stop-opacity: 1;"></stop></linearGradient></defs><g data-v-423bf9ae="" id="5daac5e1-7b89-4fdb-89c3-4a84d17f7600" transform="matrix(2.8125,0,0,2.8125,-21.194407999515533,0)" stroke="none" fill="url(#d1cdbf0c-9a7c-4de1-b045-5a6e365ff9bf)"><path d="M18.396 26.495L7.807 15.905 18.432 5.28l.707.707-9.918 9.918 9.882 9.883z"></path><path d="M23.194 1v4.194H19V1h4.194m1-1H18v6.194h6.194V0zM23.194 26.806V31H19v-4.194h4.194m1-1H18V32h6.194v-6.194z"></path></g><!----></svg>